<svg width="24" height="24" viewBox="0 0 24 24" fill="none" xmlns="http://www.w3.org/2000/svg">
<path d="M12.0004 4.75043C14.0516 4.75052 16.0242 5.5139 17.5375 6.88422L17.8334 7.16644C19.3805 8.71362 20.2504 10.8124 20.2504 13.0004C20.2503 15.1883 19.3804 17.2864 17.8334 18.8334C16.2863 20.3805 14.1883 21.2503 12.0004 21.2504C9.94917 21.2504 7.97662 20.4859 6.46326 19.1157L6.16638 18.8334C4.61937 17.2864 3.75048 15.1883 3.75037 13.0004C3.75037 10.9491 4.51372 8.97575 5.88416 7.46234L6.16638 7.16644C7.71356 5.61927 9.81233 4.75043 12.0004 4.75043ZM12.0004 7.25043C11.7103 7.25043 11.4298 7.35038 11.2074 7.53265L11.1166 7.61566C10.8822 7.85008 10.7504 8.16891 10.7504 8.50043V13.5004C10.7505 13.8646 10.9095 14.2096 11.183 14.4457L11.307 14.5405L14.307 16.5405V16.5395C14.4424 16.6311 14.5942 16.6959 14.7543 16.7289C14.8755 16.754 14.9996 16.7609 15.1224 16.7495L15.2455 16.7319C15.4077 16.7003 15.562 16.6369 15.6996 16.5453C15.8027 16.4767 15.8947 16.3928 15.973 16.2973L16.0472 16.1977C16.116 16.0946 16.169 15.982 16.2045 15.8637L16.2338 15.7436C16.2575 15.6218 16.2632 15.4974 16.2504 15.3745L16.2308 15.2524C16.1975 15.0906 16.1325 14.9367 16.0394 14.8002C15.9463 14.6638 15.8273 14.5466 15.6888 14.4565H15.6879L13.2504 12.8315V8.50043C13.2504 8.21031 13.1495 7.92991 12.9672 7.70746L12.8842 7.61566C12.6498 7.38139 12.3317 7.25052 12.0004 7.25043ZM6.18884 2.75726C6.23754 2.76579 6.28236 2.78821 6.31775 2.82172L6.34998 2.85883C6.37853 2.89917 6.39435 2.94685 6.39587 2.99554L6.39197 3.04437C6.38116 3.10917 6.34552 3.16696 6.29236 3.20551L3.14783 5.43304C3.10732 5.46116 3.05971 5.47683 3.01111 5.47797L2.96228 5.47406C2.91365 5.46556 2.86874 5.44302 2.83337 5.40961L2.80115 5.3725C2.77262 5.33222 2.75683 5.28439 2.75525 5.23578L2.75818 5.18695C2.76901 5.122 2.8054 5.06339 2.85876 5.02484L2.85779 5.02386L6.0033 2.79828C6.04385 2.7701 6.09135 2.75448 6.14001 2.75336L6.18884 2.75726ZM17.8119 2.75726C17.8606 2.74876 17.9108 2.75438 17.9554 2.77386L17.9984 2.79828L21.142 5.02386V5.02484C21.1821 5.05374 21.2126 5.09354 21.2299 5.1391L21.2426 5.18695C21.2533 5.25188 21.2376 5.31879 21.1996 5.3725C21.1711 5.4126 21.1315 5.44281 21.0863 5.46039L21.0385 5.47406C20.9899 5.48247 20.9404 5.47592 20.8959 5.45648L20.8529 5.43304L17.7064 3.20355C17.6546 3.16501 17.6194 3.10819 17.6088 3.04437C17.6007 2.99567 17.6075 2.94625 17.6273 2.90179L17.6517 2.85883C17.6803 2.81855 17.7196 2.78752 17.765 2.76996L17.8119 2.75726Z" fill="#242D38" stroke="#242D38"/>
</svg>
