<svg width="24" height="24" viewBox="0 0 24 24" fill="none" xmlns="http://www.w3.org/2000/svg">
<path fill-rule="evenodd" clip-rule="evenodd" d="M15.1425 0.419788C12.7826 -0.220977 10.2833 -0.125478 7.97914 0.693498C5.67501 1.51247 3.67608 3.01583 2.25 5.00229V2.62479C2.25 2.32642 2.13147 2.04027 1.9205 1.82929C1.70952 1.61831 1.42337 1.49979 1.125 1.49979C0.826631 1.49979 0.540483 1.61831 0.329505 1.82929C0.118526 2.04027 0 2.32642 0 2.62479L0 8.99979H6.375C6.67337 8.99979 6.95952 8.88126 7.1705 8.67028C7.38147 8.4593 7.5 8.17316 7.5 7.87479C7.5 7.57642 7.38147 7.29027 7.1705 7.07929C6.95952 6.86831 6.67337 6.74979 6.375 6.74979H3.7845C4.9595 4.91152 6.71709 3.52046 8.7761 2.79913C10.8351 2.07781 13.0766 2.06792 15.1419 2.77103C17.2072 3.47414 18.977 4.84963 20.1682 6.67745C21.3593 8.50527 21.9031 10.6798 21.7123 12.8532C21.5216 15.0265 20.6075 17.0731 19.1162 18.6655C17.6248 20.2579 15.6425 21.3042 13.4863 21.6368C11.3301 21.9695 9.12465 21.5693 7.22274 20.5004C5.32082 19.4315 3.83237 17.7556 2.9955 15.7408C2.87668 15.4719 2.65733 15.2602 2.3844 15.151C2.11147 15.0418 1.80664 15.0438 1.53514 15.1565C1.26365 15.2692 1.04705 15.4837 0.931713 15.7541C0.816374 16.0245 0.811452 16.3293 0.918 16.6033C1.69979 18.4851 2.9479 20.1368 4.54469 21.4028C6.14149 22.6687 8.03435 23.5072 10.0449 23.8391C12.0554 24.1711 14.1173 23.9856 16.0363 23.3001C17.9553 22.6147 19.6681 21.4518 21.0133 19.9212C22.3585 18.3906 23.2918 16.5426 23.7252 14.5515C24.1586 12.5604 24.0778 10.4917 23.4904 8.54047C22.903 6.58923 21.8284 4.81969 20.3679 3.39868C18.9074 1.97766 17.1091 0.953467 15.1425 0.419788Z" fill="#242D38"/>
</svg>
