<svg width="24" height="24" viewBox="0 0 24 24" fill="none" xmlns="http://www.w3.org/2000/svg">
<path d="M6.75 5.25H17.25C19.0402 5.25 20.7571 5.96116 22.023 7.22703C23.2888 8.4929 24 10.2098 24 12C24 13.7902 23.2888 15.5071 22.023 16.773C20.7571 18.0388 19.0402 18.75 17.25 18.75H6.75C4.95979 18.75 3.2429 18.0388 1.97703 16.773C0.711159 15.5071 0 13.7902 0 12C0 10.2098 0.711159 8.4929 1.97703 7.22703C3.2429 5.96116 4.95979 5.25 6.75 5.25ZM6.75 16.0312C7.54731 16.0312 8.32671 15.7948 8.98964 15.3519C9.65258 14.9089 10.1693 14.2793 10.4744 13.5427C10.7795 12.8061 10.8593 11.9955 10.7038 11.2135C10.5482 10.4316 10.1643 9.71326 9.60052 9.14948C9.03674 8.5857 8.31844 8.20176 7.53646 8.04621C6.75447 7.89066 5.94392 7.97049 5.20731 8.27561C4.47069 8.58073 3.8411 9.09742 3.39814 9.76036C2.95518 10.4233 2.71875 11.2027 2.71875 12C2.71801 12.5296 2.82178 13.0541 3.0241 13.5436C3.22643 14.033 3.52334 14.4777 3.89783 14.8522C4.27231 15.2267 4.717 15.5236 5.20643 15.7259C5.69586 15.9282 6.2204 16.032 6.75 16.0312Z" fill="#242D38"/>
<circle cx="4.5" cy="4.5" r="4.5" transform="matrix(1 0 0 -1 2 16.5)" fill="#467BCB"/>
</svg>
