<svg width="24" height="24" viewBox="0 0 24 24" fill="none" xmlns="http://www.w3.org/2000/svg">
<path d="M9.93333 2.71022C9.6527 2.71022 9.41763 2.61304 9.22811 2.41869C9.0386 2.22434 8.94352 1.9841 8.94286 1.69797C8.9422 1.41185 9.03728 1.17161 9.22811 0.977256C9.41895 0.782905 9.65402 0.68573 9.93333 0.68573H13.8952C14.1759 0.68573 14.4113 0.782905 14.6014 0.977256C14.7916 1.17161 14.8864 1.41185 14.8857 1.69797C14.8851 1.9841 14.79 2.22468 14.6005 2.41971C14.4109 2.61473 14.1759 2.71157 13.8952 2.71022H9.93333ZM11.9143 13.8449C12.1949 13.8449 12.4303 13.7477 12.6205 13.5534C12.8107 13.359 12.9054 13.1188 12.9048 12.8327V8.78369C12.9048 8.49688 12.8097 8.25664 12.6195 8.06297C12.4293 7.86929 12.1943 7.77212 11.9143 7.77144C11.6343 7.77077 11.3992 7.86794 11.2091 8.06297C11.0189 8.25799 10.9238 8.49823 10.9238 8.78369V12.8327C10.9238 13.1195 11.0189 13.36 11.2091 13.5544C11.3992 13.7487 11.6343 13.8456 11.9143 13.8449ZM11.9143 21.9429C10.6927 21.9429 9.5411 21.7026 8.45951 21.2221C7.3779 20.7417 6.43299 20.0878 5.62476 19.2604C4.81653 18.4331 4.17702 17.4671 3.70621 16.3624C3.2354 15.2577 3 14.0811 3 12.8327C3 11.5842 3.2354 10.4073 3.70621 9.30196C4.17702 8.19658 4.81653 7.2309 5.62476 6.40491C6.43299 5.57892 7.37823 4.92535 8.46049 4.44419C9.54276 3.96304 10.694 3.72246 11.9143 3.72246C12.9378 3.72246 13.92 3.89117 14.861 4.22859C15.8019 4.566 16.6851 5.05525 17.5105 5.69634L18.2038 4.98777C18.3854 4.80219 18.6165 4.7094 18.8971 4.7094C19.1778 4.7094 19.4089 4.80219 19.5905 4.98777C19.7721 5.17335 19.8629 5.40954 19.8629 5.69634C19.8629 5.98314 19.7721 6.21933 19.5905 6.40491L18.8971 7.11348C19.5244 7.95702 20.0032 8.8596 20.3333 9.82124C20.6635 10.7829 20.8286 11.7867 20.8286 12.8327C20.8286 14.0811 20.5932 15.258 20.1224 16.3634C19.6516 17.4687 19.012 18.4344 18.2038 19.2604C17.3956 20.0864 16.4503 20.7403 15.3681 21.2221C14.2858 21.704 13.1346 21.9442 11.9143 21.9429Z" fill="#242D38"/>
</svg>
