<svg width="24" height="24" viewBox="0 0 24 24" fill="none" xmlns="http://www.w3.org/2000/svg">
<path d="M6 4.05713C6 2.95256 6.89543 2.05713 8 2.05713H16.3429C17.4474 2.05713 18.3429 2.95256 18.3429 4.05713V6.94802C18.3429 7.50239 18.1128 8.03188 17.7075 8.41014L15.7951 10.195C14.948 10.9857 14.948 12.3286 15.7951 13.1192L17.7075 14.9041C18.1128 15.2824 18.3429 15.8119 18.3429 16.3662V19.2571C18.3429 20.3617 17.4474 21.2571 16.3429 21.2571H8C6.89543 21.2571 6 20.3617 6 19.2571V16.3662C6 15.8119 6.23009 15.2824 6.63536 14.9041L8.54774 13.1192C9.39489 12.3286 9.39489 10.9857 8.54774 10.195L6.63536 8.41014C6.23009 8.03188 6 7.50239 6 6.94802V4.05713ZM16.2857 16.8462C16.2857 16.2919 16.0556 15.7624 15.6504 15.3841L13.5361 13.4108C12.7677 12.6936 11.5752 12.6936 10.8068 13.4108L8.69251 15.3841C8.28724 15.7624 8.05714 16.2919 8.05714 16.8462V17.3371C8.05714 18.4417 8.95257 19.3371 10.0571 19.3371H14.2857C15.3903 19.3371 16.2857 18.4417 16.2857 17.3371V16.8462ZM10.8068 9.90347C11.5752 10.6207 12.7677 10.6207 13.5361 9.90347L15.6504 7.93014C16.0556 7.55188 16.2857 7.02239 16.2857 6.46802V5.97713C16.2857 4.87256 15.3903 3.97713 14.2857 3.97713H10.0571C8.95257 3.97713 8.05714 4.87256 8.05714 5.97713V6.46802C8.05714 7.02239 8.28724 7.55188 8.69251 7.93014L10.8068 9.90347ZM10.1143 6.39903C10.1143 6.12184 10.339 5.89713 10.6162 5.89713H13.7267C14.0039 5.89713 14.2286 6.12184 14.2286 6.39903C14.2286 6.53815 14.1708 6.67102 14.0691 6.76594L13.5361 7.26347C12.7677 7.98065 11.5752 7.98065 10.8068 7.26347L10.2737 6.76594C10.172 6.67102 10.1143 6.53815 10.1143 6.39903Z" fill="#242D38"/>
</svg>
