<svg width="24" height="24" viewBox="0 0 24 24" fill="none" xmlns="http://www.w3.org/2000/svg">
<path d="M1 9C1.28333 9 1.521 9.096 1.713 9.288C1.905 9.48 2.00067 9.71733 2 10V14C2 14.2833 1.904 14.521 1.712 14.713C1.52 14.905 1.28267 15.0007 1 15C0.717333 14.9993 0.48 14.9033 0.288 14.712C0.096 14.5207 0 14.2833 0 14V10C0 9.71667 0.096 9.47933 0.288 9.288C0.48 9.09667 0.717333 9.00067 1 9ZM4 7C4.28333 7 4.521 7.096 4.713 7.288C4.905 7.48 5.00067 7.71733 5 8V16C5 16.2833 4.904 16.521 4.712 16.713C4.52 16.905 4.28267 17.0007 4 17C3.71733 16.9993 3.48 16.9033 3.288 16.712C3.096 16.5207 3 16.2833 3 16V8C3 7.71667 3.096 7.47933 3.288 7.288C3.48 7.09667 3.71733 7.00067 4 7ZM23 9C23.2833 9 23.521 9.096 23.713 9.288C23.905 9.48 24.0007 9.71733 24 10V14C24 14.2833 23.904 14.521 23.712 14.713C23.52 14.905 23.2827 15.0007 23 15C22.7173 14.9993 22.48 14.9033 22.288 14.712C22.096 14.5207 22 14.2833 22 14V10C22 9.71667 22.096 9.47933 22.288 9.288C22.48 9.09667 22.7173 9.00067 23 9ZM20 7C20.2833 7 20.521 7.096 20.713 7.288C20.905 7.48 21.0007 7.71733 21 8V16C21 16.2833 20.904 16.521 20.712 16.713C20.52 16.905 20.2827 17.0007 20 17C19.7173 16.9993 19.48 16.9033 19.288 16.712C19.096 16.5207 19 16.2833 19 16V8C19 7.71667 19.096 7.47933 19.288 7.288C19.48 7.09667 19.7173 7.00067 20 7ZM8 21C7.45 21 6.97933 20.8043 6.588 20.413C6.19667 20.0217 6.00067 19.5507 6 19V5C6 4.45 6.196 3.97933 6.588 3.588C6.98 3.19667 7.45067 3.00067 8 3H16C16.55 3 17.021 3.196 17.413 3.588C17.805 3.98 18.0007 4.45067 18 5V19C18 19.55 17.8043 20.021 17.413 20.413C17.0217 20.805 16.5507 21.0007 16 21H8Z" fill="#242D38"/>
</svg>
