<svg width="24" height="24" viewBox="0 0 24 24" fill="none" xmlns="http://www.w3.org/2000/svg">
<path d="M12 4.75C14.0512 4.75 16.0238 5.51362 17.5371 6.88379L17.834 7.16602C19.3812 8.71319 20.25 10.812 20.25 13C20.25 15.0512 19.4864 17.0238 18.1162 18.5371L17.834 18.834C16.2868 20.3812 14.188 21.25 12 21.25C9.94885 21.25 7.97625 20.4864 6.4629 19.1162L6.16603 18.834C4.61885 17.2868 3.75001 15.188 3.75001 13C3.75001 10.9488 4.51363 8.97624 5.8838 7.46289L6.16603 7.16602C7.7132 5.61884 9.81198 4.75 12 4.75ZM12 7.25C11.71 7.25 11.4304 7.35098 11.208 7.5332L11.1162 7.61621C10.8818 7.85063 10.75 8.16848 10.75 8.5V13.5C10.75 13.8644 10.909 14.2101 11.1826 14.4463L11.3067 14.54L14.3018 16.5361V16.5371C14.4382 16.6303 14.5921 16.6951 14.7539 16.7285C14.8754 16.7536 15 16.7605 15.1231 16.749L15.2451 16.7314C15.4073 16.6999 15.5617 16.6365 15.6992 16.5449C15.8026 16.4761 15.8952 16.3926 15.9736 16.2969L16.0469 16.1982C16.1156 16.0952 16.1686 15.9824 16.2041 15.8643L16.2334 15.7441C16.2571 15.6225 16.2628 15.4978 16.25 15.375L16.2315 15.2529C16.1982 15.0912 16.133 14.9373 16.0401 14.8008C15.9478 14.6655 15.8293 14.5498 15.6924 14.46H15.6934L13.25 12.8311V8.5C13.25 8.20995 13.149 7.93043 12.9668 7.70801L12.8838 7.61621C12.6494 7.38179 12.3315 7.25 12 7.25Z" fill="#242D38" stroke="#242D38"/>
</svg>
